[Header]
FileType HTR
DataType HTRS
FileVersion 1
NumSegments 22
NumFrames 8
DataFrameRate 24
EulerRotationOrder ZYX
CalibrationUnits mm
RotationUnits Degrees
GlobalAxisofGravity Y
BoneLengthAxis Y
ScaleFactor 1.0
[SegmentNames&Hierarchy]
reference	GLOBAL
Hips	reference
Spine	Hips
Spine1	Spine
Neck	Spine1
Head	Neck
LeftShoulder	Spine1
LeftArm	LeftShoulder
LeftForeArm	LeftArm
LeftHand	LeftForeArm
RightShoulder	Spine1
RightArm	RightShoulder
RightForeArm	RightArm
RightHand	RightForeArm
LeftUpLeg	Hips
LeftLeg	LeftUpLeg
LeftFoot	LeftLeg
LeftToeBase	LeftFoot
RightUpLeg	Hips
RightLeg	RightUpLeg
RightFoot	RightLeg
RightToeBase	RightFoot
[BasePosition]
reference	0	0	0	0	0	0	1
Hips	0	0	0	0	0	0	1
Spine	0	0	0	0	-0	90	1
Spine1	0	0	0	0	0	0	1
Neck	0	0	0	-7.352430803	-7.352430803	90	1
Head	0	0	0	0	-0	90	1
LeftShoulder	0	0	0	0	0	0	1
LeftArm	0	0	0	0	0	0	1
LeftForeArm	0	0	0	0	0	0	1
LeftHand	0	0	0	0	0	0	1
RightShoulder	0	0	0	0	-0	180	1
RightArm	0	0	0	0	-0	180	1
RightForeArm	0	0	0	0	-0	180	1
RightHand	0	0	0	0	-0	180	1
LeftUpLeg	0	0	0	0	-0	-90	1
LeftLeg	0	0	0	0	-0	-90	1
LeftFoot	0	0	0	66.57150701	-66.57150701	-90	1
LeftToeBase	0	0	0	0	-90	0	1
RightUpLeg	0	0	0	0	-0	-90	1
RightLeg	0	0	0	0	-0	-90	1
RightFoot	0	0	0	66.57150701	-66.57150701	-90	1
RightToeBase	0	0	0	0	-90	0	1
[reference]
37	0	0	0	0	-0	0	1.0
38	0	0	0	0	-0	0	1.0
39	0	0	0	0	-0	0	1.0
40	0	0	0	0	-0	0	1.0
41	0	0	0	0	-0	0	1.0
42	0	0	0	0	-0	0	1.0
43	0	0	0	0	-0	0	1.0
44	0	0	0	0	-0	0	1.0
[Hips]
37	3.100498199	8.730571747	0.5895799994	-13.48332214	-104.6734238	5.113357544	1.0
38	2.895276785	8.733876228	0.4954431057	-24.37315178	-105.3550262	12.5809927	1.0
39	2.568752766	8.731440544	0.3939548433	-41.69532776	-104.4039612	22.97066879	1.0
40	2.182126999	8.714934349	0.2560680509	-61.37155151	-103.1480103	37.36997223	1.0
41	1.815026045	8.57079792	0.1571020186	-76.41065216	-103.1912079	55.53521729	1.0
42	1.511054754	8.443421364	0.1171502396	-74.68757629	-102.8600235	50.02358246	1.0
43	1.361774802	8.42661953	0.1659676731	-68.74502563	-101.7648468	46.20178223	1.0
44	1.330589294	8.516568184	0.2188619077	-61.2677536	-100.5924454	43.65979767	1.0
[Spine]
37	0	0.7478299737	0	-2.0595119	0.004952798598	-88.58973694	1.0
38	0	0.7478299737	0	0.4166089892	-0.7602638006	-88.31271362	1.0
39	0	0.7478299737	0	4.159347534	-2.455065489	-88.4100647	1.0
40	0	0.7478299737	0	6.318451881	-3.628289223	-89.4395752	1.0
41	0	0.7478299737	0	-0.6517685652	-4.10519886	-87.50056458	1.0
42	0	0.7478299737	0	4.524668694	-2.449988604	-89.18682861	1.0
43	0	0.7478299737	0	2.183039904	-1.167993188	-88.42671204	1.0
44	0	0.7478299737	0	0.8166791797	-0.728105545	-89.26476288	1.0
[Spine1]
37	0	2.049309969	0	-3.61689043	0.1074246019	3.32289362	1.0
38	0	2.049309969	0	1.059644103	-0.2814785242	3.318692684	1.0
39	0	2.049309969	0	9.008481026	-0.997510612	2.377103567	1.0
40	0	2.049309969	0	18.4406929	-1.545220137	2.15884304	1.0
41	0	2.049309969	0	26.01674461	-1.539794445	0.7233211398	1.0
42	0	2.049309969	0	25.13899612	-1.047771573	0.9369969368	1.0
43	0	2.049309969	0	25.89447784	-0.1780579388	-0.7567558885	1.0
44	0	2.049309969	0	23.12891006	0.03699798509	-1.349649906	1.0
[Neck]
37	0	2.231709957	0	32.30858612	5.494227409	-88.6975708	1.0
38	0	2.231709957	0	31.38557243	5.817539692	-87.04751587	1.0
39	0	2.231709957	0	25.11208534	6.314060211	-85.69126892	1.0
40	0	2.231709957	0	13.19503403	6.778989792	-82.82250977	1.0
41	0	2.231709957	0	4.914701939	6.355182648	-80.98596954	1.0
42	0	2.231709957	0	4.433220863	6.094863892	-81.13653564	1.0
43	0	2.231709957	0	4.564259529	5.360195637	-80.87734985	1.0
44	0	2.231709957	0	3.04673481	4.93794775	-80.94135284	1.0
[Head]
37	0	1.413589954	0.1823999882	-21.95633888	-1.656653404	-95.33976746	1.0
38	0	1.413589954	0.1823999882	-22.92217636	-0.837443471	-95.050354	1.0
39	0	1.413589954	0.1823999882	-22.06669617	-0.01217612624	-93.30006409	1.0
40	0	1.413589954	0.1823999882	-18.77508545	0.6143921614	-91.9511261	1.0
41	0	1.413589954	0.1823999882	-15.81877804	-0.03611871973	-90.69103241	1.0
42	0	1.413589954	0.1823999882	-16.88887405	-0.370249629	-91.57092285	1.0
43	0	1.413589954	0.1823999882	-18.66970062	-1.066270828	-90.98461151	1.0
44	0	1.413589954	0.1823999882	-17.34445572	-1.586678386	-90.35871887	1.0
[LeftShoulder]
37	0.3649300039	1.825889945	-0.04271000251	-14.15152454	-17.13364029	4.24683094	1.0
38	0.3649300039	1.825889945	-0.04271000251	-13.57049847	-15.10411644	1.349849343	1.0
39	0.3649300039	1.825889945	-0.04271000251	-12.82590771	-12.74505711	-2.074433565	1.0
40	0.3649300039	1.825889945	-0.04271000251	-11.00169849	-11.29497242	-2.936144352	1.0
41	0.3649300039	1.825889945	-0.04271000251	-10.32633877	-9.17916584	0.3639253378	1.0
42	0.3649300039	1.825889945	-0.04271000251	-4.467593193	-8.025420189	0.9753720164	1.0
43	0.3649300039	1.825889945	-0.04271000251	-3.733388901	-9.141137123	2.150721788	1.0
44	0.3649300039	1.825889945	-0.04271000251	-4.550125122	-8.723237991	2.542869091	1.0
[LeftArm]
37	1.24003005	0	0	43.33166504	-29.74463844	-66.44684601	1.0
38	1.24003005	0	0	44.09629822	-20.29228401	-68.27494812	1.0
39	1.24003005	0	0	35.70418167	-8.637690544	-68.54222107	1.0
40	1.24003005	0	0	22.75146866	3.816714525	-70.21443939	1.0
41	1.24003005	0	0	8.826321602	14.54897976	-75.91793823	1.0
42	1.24003005	0	0	-12.12772846	21.20252228	-80.38665009	1.0
43	1.24003005	0	0	-18.18347168	22.79800224	-82.95068359	1.0
44	1.24003005	0	0	-12.64352894	20.70002747	-82.12835693	1.0
[LeftForeArm]
37	2.847419977	0	0	-48.40681458	-31.32118988	54.23355865	1.0
38	2.847419977	0	0	-37.0904007	-29.98401833	35.58671188	1.0
39	2.847419977	0	0	-24.67136192	-25.47887421	13.33516788	1.0
40	2.847419977	0	0	-11.68320847	-16.93666649	-2.473483086	1.0
41	2.847419977	0	0	-3.037799358	-3.872540236	-13.65351009	1.0
42	2.847419977	0	0	5.095483303	2.550512791	-18.35084534	1.0
43	2.847419977	0	0	6.346785545	4.958718777	-18.56062126	1.0
44	2.847419977	0	0	3.235949039	0.2401607186	-18.19605446	1.0
[LeftHand]
37	2.258270025	0	0	-32.72081757	-8.462050438	8.830705643	1.0
38	2.258270025	0	0	-28.12463379	-11.4830246	8.554042816	1.0
39	2.258270025	0	0	-22.13538742	-12.15467262	4.623687267	1.0
40	2.258270025	0	0	-12.29900742	-10.24116993	2.767615795	1.0
41	2.258270025	0	0	-3.611342669	-7.179645538	1.798025966	1.0
42	2.258270025	0	0	5.493905544	-4.528610706	0.3546816409	1.0
43	2.258270025	0	0	7.187806606	-1.701924205	-2.046284437	1.0
44	2.258270025	0	0	3.29373312	-2.949198246	-0.7507514358	1.0
[RightShoulder]
37	-0.3646599948	1.825889945	-0.04271000251	-12.6663599	17.03689003	174.7654114	1.0
38	-0.3646599948	1.825889945	-0.04271000251	-12.49012661	16.43312073	177.7127228	1.0
39	-0.3646599948	1.825889945	-0.04271000251	-9.297233582	14.57425976	181.8099365	1.0
40	-0.3646599948	1.825889945	-0.04271000251	-6.33834362	12.58254337	184.4359741	1.0
41	-0.3646599948	1.825889945	-0.04271000251	-4.847328663	9.162427902	184.1303101	1.0
42	-0.3646599948	1.825889945	-0.04271000251	-1.33324635	8.780213356	182.1410522	1.0
43	-0.3646599948	1.825889945	-0.04271000251	-0.02773699164	8.574466705	181.4406433	1.0
44	-0.3646599948	1.825889945	-0.04271000251	-1.796765804	7.093424797	180.3016052	1.0
[RightArm]
37	-1.24003005	0	0	42.15914154	28.49446869	-120.1940155	1.0
38	-1.24003005	0	0	40.03678131	16.01306534	-117.0696259	1.0
39	-1.24003005	0	0	36.84778595	5.660486698	-114.7112732	1.0
40	-1.24003005	0	0	31.35652161	-3.609703064	-110.4560242	1.0
41	-1.24003005	0	0	-2.144027948	-14.37178421	-102.7565994	1.0
42	-1.24003005	0	0	-18.2818737	-21.14893913	-100.6016388	1.0
43	-1.24003005	0	0	-17.4188118	-22.27739525	-101.3788452	1.0
44	-1.24003005	0	0	-7.636807442	-18.89754295	-103.4421158	1.0
[RightForeArm]
37	-2.847419977	0	0	-28.16669464	28.89068222	124.7607956	1.0
38	-2.847419977	0	0	-20.17717552	33.59165955	139.177063	1.0
39	-2.847419977	0	0	-6.437479973	30.19361877	162.8361511	1.0
40	-2.847419977	0	0	6.204638481	19.75198555	183.0497742	1.0
41	-2.847419977	0	0	18.54375458	3.951886654	193.3080902	1.0
42	-2.847419977	0	0	26.49154663	-2.141265869	197.3909149	1.0
43	-2.847419977	0	0	23.97259331	-0.05244769156	197.4777527	1.0
44	-2.847419977	0	0	18.9306469	2.983360291	193.5876007	1.0
[RightHand]
37	-2.258270025	0	0	-13.72891617	6.128530979	163.0520325	1.0
38	-2.258270025	0	0	-8.781060219	9.823659897	162.8229218	1.0
39	-2.258270025	0	0	-3.286797285	12.89905071	166.2888184	1.0
40	-2.258270025	0	0	4.719640732	14.00250626	171.8638458	1.0
41	-2.258270025	0	0	17.79817963	9.651637077	176.662384	1.0
42	-2.258270025	0	0	26.77337837	8.527463913	179.5924377	1.0
43	-2.258270025	0	0	23.79076767	8.237314224	177.319458	1.0
44	-2.258270025	0	0	18.39429092	8.184965134	177.493576	1.0
[LeftUpLeg]
37	0.9119900465	0	0	-6.546013832	-3.291053534	90.01430511	1.0
38	0.9119900465	0	0	-1.778322935	4.05313921	90.63665771	1.0
39	0.9119900465	0	0	4.757320404	8.110191345	91.71141052	1.0
40	0.9119900465	0	0	8.484674454	7.586668491	94.24060822	1.0
41	0.9119900465	0	0	3.353702784	10.05430317	96.39479828	1.0
42	0.9119900465	0	0	7.459874153	11.73126602	96.94122314	1.0
43	0.9119900465	0	0	6.338275909	11.07027435	95.00746918	1.0
44	0.9119900465	0	0	3.55111742	9.651620865	93.23178101	1.0
[LeftLeg]
37	0	-4.371409893	0	17.97838974	3.604160786	83.84445953	1.0
38	0	-4.371409893	0	20.22888184	-2.281949997	86.42399597	1.0
39	0	-4.371409893	0	25.79619598	-8.419981003	88.4777832	1.0
40	0	-4.371409893	0	34.84111786	-12.8123455	85.20435333	1.0
41	0	-4.371409893	0	41.40385056	-9.578087807	86.77280426	1.0
42	0	-4.371409893	0	45.4776268	-7.326845646	86.55322266	1.0
43	0	-4.371409893	0	44.66657639	-6.988809109	85.32000732	1.0
44	0	-4.371409893	0	40.55410004	-3.742872715	85.44917297	1.0
[LeftFoot]
37	0	-3.918009996	0	-97.82791901	114.9194031	-63.99250031	1.0
38	0	-3.918009996	0	-102.3296814	114.3615112	-64.02101135	1.0
39	0	-3.918009996	0	-105.5359497	113.9047318	-62.7143631	1.0
40	0	-3.918009996	0	-96.46446228	114.5355835	-48.01130295	1.0
41	0	-3.918009996	0	-102.2932587	114.3239746	-48.86534119	1.0
42	0	-3.918009996	0	-104.5337296	113.8986664	-47.32516479	1.0
43	0	-3.918009996	0	-100.614212	113.952713	-42.53079987	1.0
44	0	-3.918009996	0	-102.0589676	113.3829651	-46.35921097	1.0
[LeftToeBase]
37	0	-0.5927900076	1.367989898	0	0	0	1.0
38	0	-0.5927900076	1.367989898	0	0	0	1.0
39	0	-0.5927900076	1.367989898	0	0	0	1.0
40	0	-0.5927900076	1.367989898	0	0	0	1.0
41	0	-0.5927900076	1.367989898	0	0	0	1.0
42	0	-0.5927900076	1.367989898	0	0	0	1.0
43	0	-0.5927900076	1.367989898	0	0	0	1.0
44	0	-0.5927900076	1.367989898	0	0	0	1.0
[RightUpLeg]
37	-0.9119900465	0	0	-47.35215759	-7.125442505	106.7473221	1.0
38	-0.9119900465	0	0	-64.75509644	-0.003675192595	112.083931	1.0
39	-0.9119900465	0	0	-79.01879883	4.108854294	113.1601334	1.0
40	-0.9119900465	0	0	-92.49763489	6.065822601	113.0541229	1.0
41	-0.9119900465	0	0	-107.9550095	8.602690697	112.6250458	1.0
42	-0.9119900465	0	0	-106.1930084	9.751654625	112.2623825	1.0
43	-0.9119900465	0	0	-100.7680206	7.680066109	111.8481445	1.0
44	-0.9119900465	0	0	-92.27809906	4.768345356	111.8208084	1.0
[RightLeg]
37	0	-4.371409893	0	108.1095505	19.58025169	85.72254944	1.0
38	0	-4.371409893	0	108.4242477	22.6313858	79.67182922	1.0
39	0	-4.371409893	0	112.9333649	19.08397675	85.61923218	1.0
40	0	-4.371409893	0	118.2518845	14.09536743	92.30951691	1.0
41	0	-4.371409893	0	124.4953384	7.236805916	99.94496918	1.0
42	0	-4.371409893	0	129.0627899	5.831323147	98.56686401	1.0
43	0	-4.371409893	0	130.9947052	6.441220284	95.68778992	1.0
44	0	-4.371409893	0	127.658783	11.09722328	91.36691284	1.0
[RightFoot]
37	0	-3.918009996	0	39.83559036	53.30251694	82.79690552	1.0
38	0	-3.918009996	0	47.62892151	58.20294952	97.95124817	1.0
39	0	-3.918009996	0	40.62356949	57.74003601	91.22156525	1.0
40	0	-3.918009996	0	34.36080551	59.15426254	81.01281738	1.0
41	0	-3.918009996	0	24.08638954	55.19750595	66.95110321	1.0
42	0	-3.918009996	0	24.51552582	54.65436554	66.25224304	1.0
43	0	-3.918009996	0	31.54308319	56.79653168	69.57214355	1.0
44	0	-3.918009996	0	48.23082733	60.19276047	81.09275818	1.0
[RightToeBase]
37	0	-0.5927900076	1.367989898	0	0	0	1.0
38	0	-0.5927900076	1.367989898	0	0	0	1.0
39	0	-0.5927900076	1.367989898	0	0	0	1.0
40	0	-0.5927900076	1.367989898	0	0	0	1.0
41	0	-0.5927900076	1.367989898	0	0	0	1.0
42	0	-0.5927900076	1.367989898	0	0	0	1.0
43	0	-0.5927900076	1.367989898	0	0	0	1.0
44	0	-0.5927900076	1.367989898	0	0	0	1.0
[EndOfFile]
